<mxfile host="www.draw.io" modified="2019-11-01T06:38:52.169Z" agent="Mozilla/5.0 (Windows NT 6.1; Win64; x64) AppleWebKit/537.36 (KHTML, like Gecko) Chrome/74.0.3729.169 Safari/537.36" etag="jC9oQHmmtJNCLqFs41Ei" version="12.1.9" type="github" pages="1">
  <diagram name="Page-1" id="74e2e168-ea6b-b213-b513-2b3c1d86103e">
    <mxGraphModel dx="868" dy="492" grid="1" gridSize="10" guides="1" tooltips="1" connect="1" arrows="1" fold="1" page="1" pageScale="1" pageWidth="1100" pageHeight="850" background="#ffffff" math="0" shadow="0">
      <root>
        <mxCell id="0"/>
        <mxCell id="1" parent="0"/>
        <mxCell id="77e6c97f196da883-1" value="监控服务流程" style="swimlane;html=1;childLayout=stackLayout;startSize=20;rounded=0;shadow=0;labelBackgroundColor=none;strokeColor=#000000;strokeWidth=1;fillColor=#ffffff;fontFamily=Verdana;fontSize=8;fontColor=#000000;align=center;" parent="1" vertex="1">
          <mxGeometry x="70" y="40" width="960" height="750" as="geometry"/>
        </mxCell>
        <mxCell id="77e6c97f196da883-2" value="基础数据准备" style="swimlane;html=1;startSize=20;" parent="77e6c97f196da883-1" vertex="1">
          <mxGeometry y="20" width="160" height="730" as="geometry"/>
        </mxCell>
        <mxCell id="77e6c97f196da883-8" value="人员信息" style="rounded=1;whiteSpace=wrap;html=1;shadow=0;labelBackgroundColor=none;strokeColor=#000000;strokeWidth=1;fillColor=#ffffff;fontFamily=Verdana;fontSize=8;fontColor=#000000;align=center;" parent="77e6c97f196da883-2" vertex="1">
          <mxGeometry x="20" y="65" width="100" height="60" as="geometry"/>
        </mxCell>
        <mxCell id="77e6c97f196da883-9" value="数据库信息" style="rounded=1;whiteSpace=wrap;html=1;shadow=0;labelBackgroundColor=none;strokeColor=#000000;strokeWidth=1;fillColor=#ffffff;fontFamily=Verdana;fontSize=8;fontColor=#000000;align=center;" parent="77e6c97f196da883-2" vertex="1">
          <mxGeometry x="20" y="155" width="100" height="60" as="geometry"/>
        </mxCell>
        <mxCell id="77e6c97f196da883-18" value="消息模板" style="rounded=1;whiteSpace=wrap;html=1;shadow=0;labelBackgroundColor=none;strokeColor=#000000;strokeWidth=1;fillColor=#ffffff;fontFamily=Verdana;fontSize=8;fontColor=#000000;align=center;" parent="77e6c97f196da883-2" vertex="1">
          <mxGeometry x="20" y="260" width="100" height="60" as="geometry"/>
        </mxCell>
        <mxCell id="77e6c97f196da883-6" value="配置任务" style="swimlane;html=1;startSize=20;" parent="77e6c97f196da883-1" vertex="1">
          <mxGeometry x="160" y="20" width="170" height="730" as="geometry"/>
        </mxCell>
        <mxCell id="77e6c97f196da883-21" value="任务配置" style="rounded=1;whiteSpace=wrap;html=1;shadow=0;labelBackgroundColor=none;strokeColor=#000000;strokeWidth=1;fillColor=#ffffff;fontFamily=Verdana;fontSize=8;fontColor=#000000;align=center;" parent="77e6c97f196da883-6" vertex="1">
          <mxGeometry x="40" y="170" width="100" height="60" as="geometry"/>
        </mxCell>
        <mxCell id="0r6heg7vgN5LQCULHL35-13" value="将任务分配给负责人" style="html=1;whiteSpace=wrap;comic=1;strokeWidth=2;fontFamily=Comic Sans MS;fontStyle=1;" vertex="1" parent="77e6c97f196da883-6">
          <mxGeometry x="-10" y="70" width="120" height="60" as="geometry"/>
        </mxCell>
        <mxCell id="0r6heg7vgN5LQCULHL35-14" value="1 数据库获取数据&lt;br&gt;2&amp;nbsp;消息模板发送消息" style="html=1;whiteSpace=wrap;comic=1;strokeWidth=2;fontFamily=Comic Sans MS;fontStyle=1;" vertex="1" parent="77e6c97f196da883-6">
          <mxGeometry x="-10" y="260" width="120" height="60" as="geometry"/>
        </mxCell>
        <mxCell id="77e6c97f196da883-7" value="触发任务" style="swimlane;html=1;startSize=20;" parent="77e6c97f196da883-1" vertex="1">
          <mxGeometry x="330" y="20" width="160" height="730" as="geometry"/>
        </mxCell>
        <mxCell id="0r6heg7vgN5LQCULHL35-11" value="任务调度平台" style="rounded=1;whiteSpace=wrap;html=1;shadow=0;labelBackgroundColor=none;strokeColor=#000000;strokeWidth=1;fillColor=#ffffff;fontFamily=Verdana;fontSize=8;fontColor=#000000;align=center;" vertex="1" parent="77e6c97f196da883-7">
          <mxGeometry x="40" y="170" width="100" height="60" as="geometry"/>
        </mxCell>
        <mxCell id="0r6heg7vgN5LQCULHL35-15" value="任务调度平台配置执行频率等" style="html=1;whiteSpace=wrap;comic=1;strokeWidth=2;fontFamily=Comic Sans MS;fontStyle=1;" vertex="1" parent="77e6c97f196da883-7">
          <mxGeometry x="10" y="250" width="120" height="60" as="geometry"/>
        </mxCell>
        <mxCell id="0r6heg7vgN5LQCULHL35-8" value="" style="endArrow=classic;html=1;exitX=1;exitY=0.5;exitDx=0;exitDy=0;" edge="1" parent="77e6c97f196da883-1" source="77e6c97f196da883-8">
          <mxGeometry width="50" height="50" relative="1" as="geometry">
            <mxPoint x="40" y="520" as="sourcePoint"/>
            <mxPoint x="200" y="230" as="targetPoint"/>
            <Array as="points"/>
          </mxGeometry>
        </mxCell>
        <mxCell id="0r6heg7vgN5LQCULHL35-12" value="" style="endArrow=classic;html=1;exitX=0;exitY=0.5;exitDx=0;exitDy=0;entryX=1;entryY=0.5;entryDx=0;entryDy=0;" edge="1" parent="77e6c97f196da883-1" source="0r6heg7vgN5LQCULHL35-11" target="77e6c97f196da883-21">
          <mxGeometry width="50" height="50" relative="1" as="geometry">
            <mxPoint x="270" y="410" as="sourcePoint"/>
            <mxPoint x="370" y="360" as="targetPoint"/>
          </mxGeometry>
        </mxCell>
        <mxCell id="0r6heg7vgN5LQCULHL35-9" value="" style="endArrow=classic;html=1;exitX=1;exitY=0.5;exitDx=0;exitDy=0;entryX=-0.04;entryY=0.4;entryDx=0;entryDy=0;entryPerimeter=0;" edge="1" parent="1" source="77e6c97f196da883-9">
          <mxGeometry width="50" height="50" relative="1" as="geometry">
            <mxPoint x="200" y="165" as="sourcePoint"/>
            <mxPoint x="276" y="264" as="targetPoint"/>
            <Array as="points"/>
          </mxGeometry>
        </mxCell>
        <mxCell id="0r6heg7vgN5LQCULHL35-10" value="" style="endArrow=classic;html=1;exitX=0.99;exitY=0.367;exitDx=0;exitDy=0;entryX=-0.04;entryY=0.4;entryDx=0;entryDy=0;entryPerimeter=0;exitPerimeter=0;" edge="1" parent="1" source="77e6c97f196da883-18">
          <mxGeometry width="50" height="50" relative="1" as="geometry">
            <mxPoint x="200" y="165" as="sourcePoint"/>
            <mxPoint x="276" y="264" as="targetPoint"/>
            <Array as="points"/>
          </mxGeometry>
        </mxCell>
      </root>
    </mxGraphModel>
  </diagram>
</mxfile>
